<?xml version="1.0" encoding="UTF-8"?>
<svg xmlns="http://www.w3.org/2000/svg" xmlns:xlink="http://www.w3.org/1999/xlink" width="117px" height="40px" viewBox="0 0 117 40" version="1.1">
<g id="surface1">
<path style=" stroke:none;fill-rule:nonzero;fill:rgb(2.352941%,41.960785%,86.274511%);fill-opacity:1;" d="M 23.980469 6.953125 C 24.695312 7.578125 25.039062 8.125 25.113281 9.085938 C 25.144531 10.585938 24.988281 11.734375 24.34375 13.089844 C 24.269531 13.25 24.195312 13.410156 24.117188 13.574219 C 22.925781 15.921875 20.890625 18.671875 18.710938 20.183594 C 18.851562 20.207031 18.992188 20.230469 19.136719 20.257812 C 20.496094 20.539062 21.472656 20.886719 22.347656 22 C 23.261719 23.480469 23.285156 25.117188 22.953125 26.789062 C 22.265625 29.304688 20.75 31.378906 18.554688 32.796875 C 16.6875 33.828125 14.511719 34.1875 12.414062 33.707031 C 11.875 33.515625 11.488281 33.316406 11.082031 32.910156 C 11.148438 32.273438 11.472656 31.800781 11.808594 31.273438 C 12.410156 31.480469 12.867188 31.742188 13.375 32.113281 C 14.28125 32.6875 15.128906 32.710938 16.167969 32.546875 C 17.941406 31.953125 18.933594 30.683594 19.804688 29.089844 C 20.71875 26.957031 20.753906 24.898438 19.984375 22.726562 C 19.925781 22.546875 19.863281 22.367188 19.804688 22.183594 C 19.011719 21.707031 18.320312 21.613281 17.40625 21.625 C 17.210938 21.625 17.011719 21.628906 16.808594 21.628906 C 16.65625 21.632812 16.507812 21.632812 16.351562 21.636719 C 16.261719 20.65625 16.261719 20.65625 16.65625 20.160156 C 17.253906 19.675781 17.859375 19.199219 18.46875 18.726562 C 18.902344 18.382812 18.902344 18.382812 19.199219 17.953125 C 19.277344 17.847656 19.359375 17.746094 19.4375 17.636719 C 19.558594 17.636719 19.679688 17.636719 19.804688 17.636719 C 19.847656 17.539062 19.890625 17.441406 19.933594 17.34375 C 20.230469 16.789062 20.585938 16.304688 20.949219 15.796875 C 22.210938 13.992188 23.203125 12.207031 23.0625 9.933594 C 22.855469 9.132812 22.671875 8.820312 21.984375 8.363281 C 20.304688 8.28125 19.175781 9.367188 17.976562 10.421875 C 17.671875 10.703125 17.375 10.984375 17.078125 11.273438 C 16.941406 11.402344 16.800781 11.53125 16.660156 11.664062 C 15.960938 12.367188 15.558594 12.945312 15.335938 13.917969 C 15.292969 14.113281 15.246094 14.304688 15.203125 14.503906 C 15.050781 15.222656 14.914062 15.945312 14.78125 16.667969 C 14.050781 20.738281 13.0625 24.738281 11.753906 28.660156 C 11.714844 28.773438 11.675781 28.890625 11.636719 29.011719 C 11.265625 30.105469 10.890625 31.152344 10.355469 32.183594 C 11.132812 33.21875 11.945312 33.929688 13.261719 34.183594 C 14.296875 34.257812 15.28125 34.300781 16.25 33.898438 C 16.894531 33.636719 16.894531 33.636719 17.417969 33.648438 C 17.804688 33.816406 17.804688 33.816406 18.042969 34.191406 C 18.105469 34.367188 18.105469 34.367188 18.167969 34.546875 C 17.949219 34.632812 17.734375 34.71875 17.507812 34.808594 C 17.386719 34.855469 17.265625 34.902344 17.140625 34.953125 C 15.375 35.523438 13.515625 35.390625 11.742188 34.953125 C 11.5625 34.910156 11.5625 34.910156 11.382812 34.867188 C 10.761719 34.703125 10.226562 34.488281 9.679688 34.160156 C 9.148438 33.855469 8.902344 33.738281 8.3125 33.726562 C 7.628906 33.636719 7.628906 33.636719 7.277344 33.296875 C 5.878906 30.496094 7.574219 26 8.46875 23.25 C 9.445312 20.386719 10.710938 16.734375 12.898438 14.546875 C 12.925781 14.140625 12.945312 13.738281 12.960938 13.332031 C 12.980469 12.949219 13.003906 12.566406 13.027344 12.183594 C 13.039062 11.917969 13.050781 11.65625 13.058594 11.390625 C 13.082031 10.523438 13.140625 9.730469 13.445312 8.910156 C 14.113281 8.355469 14.792969 8.066406 15.625 7.816406 C 15.804688 8 15.804688 8 15.824219 8.652344 C 15.824219 8.925781 15.820312 9.195312 15.816406 9.464844 C 15.816406 9.605469 15.816406 9.742188 15.816406 9.882812 C 15.8125 10.226562 15.808594 10.566406 15.804688 10.910156 C 15.898438 10.8125 15.988281 10.714844 16.082031 10.613281 C 18.035156 8.585938 20.90625 5.671875 23.980469 6.953125 Z M 12.535156 16.910156 C 12.71875 17.273438 12.71875 17.273438 12.71875 17.273438 Z M 12.355469 17.273438 C 10.199219 21.140625 6.789062 27.566406 7.992188 32.183594 C 8.519531 32 8.699219 31.855469 8.980469 31.363281 C 10.25 28.121094 11.125 24.734375 11.886719 21.339844 C 11.933594 21.140625 11.976562 20.941406 12.023438 20.738281 C 12.273438 19.585938 12.449219 18.449219 12.535156 17.273438 C 12.476562 17.273438 12.414062 17.273438 12.355469 17.273438 Z M 12.355469 17.273438 "/>
<path style=" stroke:none;fill-rule:nonzero;fill:rgb(5.490196%,23.137255%,44.705883%);fill-opacity:1;" d="M 23.980469 6.953125 C 24.695312 7.578125 25.039062 8.125 25.113281 9.085938 C 25.144531 10.585938 24.988281 11.734375 24.34375 13.089844 C 24.269531 13.25 24.195312 13.410156 24.117188 13.574219 C 22.925781 15.921875 20.890625 18.671875 18.710938 20.183594 C 18.851562 20.207031 18.992188 20.230469 19.136719 20.257812 C 20.496094 20.539062 21.472656 20.886719 22.347656 22 C 23.261719 23.480469 23.285156 25.117188 22.953125 26.789062 C 22.265625 29.304688 20.75 31.378906 18.554688 32.796875 C 16.6875 33.828125 14.511719 34.1875 12.414062 33.707031 C 11.875 33.515625 11.488281 33.316406 11.082031 32.910156 C 11.148438 32.273438 11.472656 31.800781 11.808594 31.273438 C 12.410156 31.480469 12.867188 31.742188 13.375 32.113281 C 14.28125 32.6875 15.128906 32.710938 16.167969 32.546875 C 17.941406 31.953125 18.933594 30.683594 19.804688 29.089844 C 20.71875 26.957031 20.753906 24.898438 19.984375 22.726562 C 19.925781 22.546875 19.863281 22.367188 19.804688 22.183594 C 19.011719 21.707031 18.320312 21.613281 17.40625 21.625 C 17.210938 21.625 17.011719 21.628906 16.808594 21.628906 C 16.65625 21.632812 16.507812 21.632812 16.351562 21.636719 C 16.261719 20.65625 16.261719 20.65625 16.65625 20.160156 C 17.253906 19.675781 17.859375 19.199219 18.46875 18.726562 C 18.902344 18.382812 18.902344 18.382812 19.199219 17.953125 C 19.277344 17.847656 19.359375 17.746094 19.4375 17.636719 C 19.558594 17.636719 19.679688 17.636719 19.804688 17.636719 C 19.847656 17.539062 19.890625 17.441406 19.933594 17.34375 C 20.230469 16.789062 20.585938 16.304688 20.949219 15.796875 C 22.210938 13.992188 23.203125 12.207031 23.0625 9.933594 C 22.855469 9.132812 22.671875 8.820312 21.984375 8.363281 C 20.304688 8.28125 19.175781 9.367188 17.976562 10.421875 C 17.246094 11.09375 16.578125 11.800781 15.929688 12.554688 C 15.660156 12.871094 15.378906 13.164062 15.078125 13.453125 C 14.898438 13.273438 14.898438 13.273438 14.851562 12.660156 C 14.898438 12 14.898438 12 15.148438 11.648438 C 15.441406 11.453125 15.441406 11.453125 15.804688 11.453125 C 15.832031 11.296875 15.832031 11.296875 15.859375 11.132812 C 16.363281 9.535156 18.875 8.03125 20.246094 7.175781 C 21.417969 6.585938 22.757812 6.445312 23.980469 6.953125 Z M 23.980469 6.953125 "/>
<path style=" stroke:none;fill-rule:nonzero;fill:rgb(0.392157%,20.784314%,43.529412%);fill-opacity:1;" d="M 101.933594 17.253906 C 102.15625 17.257812 102.15625 17.257812 102.386719 17.261719 C 102.535156 17.261719 102.6875 17.265625 102.839844 17.265625 C 102.957031 17.269531 103.074219 17.269531 103.191406 17.273438 C 103.570312 18.234375 103.867188 19.171875 104.101562 20.183594 C 104.570312 19.710938 104.699219 19.25 104.929688 18.625 C 105.355469 17.472656 105.355469 17.472656 105.554688 17.273438 C 105.914062 17.273438 106.273438 17.273438 106.644531 17.273438 C 107.273438 18.800781 107.273438 18.800781 107.917969 20.363281 C 108.140625 19.484375 108.140625 19.484375 108.363281 18.601562 C 108.601562 17.675781 108.601562 17.675781 109.007812 17.273438 C 109.496094 17.222656 109.96875 17.257812 110.460938 17.273438 C 110.777344 18.027344 110.488281 18.707031 110.269531 19.449219 C 110.226562 19.589844 110.1875 19.730469 110.144531 19.871094 C 110.019531 20.316406 109.886719 20.761719 109.753906 21.203125 C 109.667969 21.503906 109.582031 21.804688 109.496094 22.105469 C 108.859375 24.292969 108.859375 24.292969 108.644531 24.726562 C 108.28125 24.726562 107.921875 24.726562 107.554688 24.726562 C 107.074219 23.527344 106.59375 22.328125 106.097656 21.089844 C 105.808594 21.53125 105.617188 21.886719 105.421875 22.367188 C 105.367188 22.503906 105.308594 22.640625 105.253906 22.78125 C 105.195312 22.925781 105.136719 23.070312 105.078125 23.214844 C 105.019531 23.359375 104.960938 23.503906 104.898438 23.65625 C 104.753906 24.011719 104.609375 24.371094 104.464844 24.726562 C 104.105469 24.726562 103.746094 24.726562 103.375 24.726562 C 101.671875 18.996094 101.671875 18.996094 101.375 17.453125 C 101.558594 17.273438 101.558594 17.273438 101.933594 17.253906 Z M 101.933594 17.253906 "/>
<path style=" stroke:none;fill-rule:nonzero;fill:rgb(0.392157%,20.784314%,43.921569%);fill-opacity:1;" d="M 64.226562 17.4375 C 65.148438 17.984375 65.933594 18.691406 66.285156 19.730469 C 66.558594 20.914062 66.527344 21.832031 65.949219 22.910156 C 65.355469 23.800781 64.769531 24.316406 63.769531 24.726562 C 62.378906 24.910156 61.015625 24.960938 59.863281 24.078125 C 59.140625 23.394531 58.5625 22.691406 58.4375 21.683594 C 58.421875 20.324219 58.53125 19.289062 59.484375 18.269531 C 60.765625 17.125 62.613281 16.855469 64.226562 17.4375 Z M 61.042969 19.273438 C 60.585938 19.699219 60.5 19.992188 60.339844 20.601562 C 60.3125 21.421875 60.4375 21.84375 60.863281 22.546875 C 61.421875 23.039062 61.941406 23.273438 62.703125 23.273438 C 63.472656 23.003906 63.953125 22.65625 64.382812 21.953125 C 64.589844 21.039062 64.480469 20.292969 64.019531 19.476562 C 63.015625 18.578125 62.175781 18.621094 61.042969 19.273438 Z M 61.042969 19.273438 "/>
<path style=" stroke:none;fill-rule:nonzero;fill:rgb(0.392157%,20.784314%,43.137255%);fill-opacity:1;" d="M 31.644531 17.226562 C 31.800781 17.222656 31.957031 17.21875 32.113281 17.214844 C 33.058594 17.210938 33.703125 17.296875 34.519531 17.816406 C 35.0625 18.363281 35.214844 18.867188 35.246094 19.636719 C 35.007812 20.125 35.007812 20.125 34.699219 20.546875 C 34.582031 20.726562 34.460938 20.90625 34.335938 21.089844 C 34.449219 21.136719 34.5625 21.179688 34.675781 21.226562 C 35.152344 21.507812 35.269531 21.652344 35.425781 22.183594 C 35.390625 23.140625 35.207031 23.691406 34.519531 24.363281 C 33.644531 24.855469 32.722656 24.773438 31.75 24.761719 C 31.496094 24.761719 31.496094 24.761719 31.238281 24.761719 C 30.003906 24.753906 30.003906 24.753906 29.796875 24.546875 C 29.777344 24.023438 29.769531 23.503906 29.769531 22.984375 C 29.769531 22.828125 29.769531 22.667969 29.769531 22.507812 C 29.769531 22.175781 29.769531 21.84375 29.769531 21.511719 C 29.773438 21.003906 29.769531 20.492188 29.769531 19.980469 C 29.769531 19.660156 29.769531 19.339844 29.769531 19.015625 C 29.769531 18.863281 29.769531 18.710938 29.769531 18.550781 C 29.777344 16.984375 30.253906 17.234375 31.644531 17.226562 Z M 31.792969 18.726562 C 31.792969 19.265625 31.792969 19.808594 31.792969 20.363281 C 32.222656 20.441406 32.222656 20.441406 32.703125 20.363281 C 33.0625 19.957031 33.0625 19.957031 33.246094 19.453125 C 33.1875 19.273438 33.128906 19.09375 33.066406 18.910156 C 32.644531 18.847656 32.226562 18.789062 31.792969 18.726562 Z M 31.792969 21.636719 C 31.792969 22.175781 31.792969 22.714844 31.792969 23.273438 C 32.316406 23.347656 32.316406 23.347656 32.882812 23.273438 C 33.234375 22.839844 33.234375 22.839844 33.429688 22.363281 C 32.933594 21.765625 32.933594 21.765625 32.203125 21.589844 C 32 21.613281 32 21.613281 31.792969 21.636719 Z M 31.792969 21.636719 "/>
<path style=" stroke:none;fill-rule:nonzero;fill:rgb(0.392157%,21.960784%,43.529412%);fill-opacity:1;" d="M 49.597656 17.273438 C 50.199219 17.273438 50.796875 17.273438 51.414062 17.273438 C 51.414062 18.234375 51.414062 19.191406 51.414062 20.183594 C 52.3125 20.183594 53.214844 20.183594 54.140625 20.183594 C 54.132812 19.292969 54.132812 19.292969 54.125 18.402344 C 54.121094 18.085938 54.128906 17.769531 54.140625 17.453125 C 54.320312 17.273438 54.320312 17.273438 54.691406 17.25 C 54.839844 17.25 54.988281 17.25 55.140625 17.25 C 55.285156 17.25 55.433594 17.25 55.585938 17.25 C 55.957031 17.273438 55.957031 17.273438 56.136719 17.453125 C 56.15625 17.976562 56.164062 18.496094 56.164062 19.015625 C 56.164062 19.171875 56.164062 19.332031 56.164062 19.492188 C 56.164062 19.824219 56.164062 20.15625 56.160156 20.488281 C 56.160156 20.996094 56.160156 21.507812 56.164062 22.019531 C 56.164062 22.339844 56.164062 22.660156 56.164062 22.984375 C 56.164062 23.136719 56.164062 23.289062 56.164062 23.449219 C 56.160156 24.523438 56.160156 24.523438 55.957031 24.726562 C 55.683594 24.746094 55.410156 24.75 55.140625 24.75 C 54.992188 24.75 54.84375 24.75 54.691406 24.75 C 54.320312 24.726562 54.320312 24.726562 54.140625 24.546875 C 54.125 24.085938 54.121094 23.628906 54.128906 23.171875 C 54.132812 22.722656 54.136719 22.277344 54.140625 21.816406 C 53.242188 21.757812 52.339844 21.699219 51.414062 21.636719 C 51.414062 22.65625 51.414062 23.675781 51.414062 24.726562 C 50.816406 24.726562 50.214844 24.726562 49.597656 24.726562 C 49.597656 22.265625 49.597656 19.808594 49.597656 17.273438 Z M 49.597656 17.273438 "/>
<path style=" stroke:none;fill-rule:nonzero;fill:rgb(0.392157%,20.784314%,43.529412%);fill-opacity:1;" d="M 77.679688 17.261719 C 77.898438 17.265625 77.898438 17.265625 78.121094 17.273438 C 78.976562 18.941406 79.796875 20.628906 80.585938 22.328125 C 80.707031 22.589844 80.707031 22.589844 80.835938 22.859375 C 80.910156 23.023438 80.984375 23.1875 81.0625 23.355469 C 81.128906 23.503906 81.199219 23.648438 81.269531 23.800781 C 81.390625 24.183594 81.390625 24.183594 81.210938 24.726562 C 80.65625 24.78125 80.125 24.808594 79.574219 24.726562 C 79.191406 24.285156 79.03125 24.039062 79.03125 23.453125 C 78.128906 23.453125 77.230469 23.453125 76.304688 23.453125 C 76.183594 23.816406 76.066406 24.175781 75.941406 24.546875 C 75.757812 24.726562 75.757812 24.726562 75.34375 24.746094 C 75.09375 24.742188 75.09375 24.742188 74.839844 24.738281 C 74.671875 24.738281 74.503906 24.734375 74.332031 24.734375 C 74.203125 24.730469 74.074219 24.730469 73.941406 24.726562 C 74.046875 23.777344 74.363281 23.035156 74.769531 22.183594 C 74.867188 21.980469 74.867188 21.980469 74.964844 21.773438 C 75.097656 21.488281 75.234375 21.207031 75.371094 20.921875 C 75.578125 20.488281 75.785156 20.050781 75.992188 19.613281 C 76.121094 19.339844 76.253906 19.0625 76.382812 18.785156 C 76.445312 18.65625 76.507812 18.523438 76.570312 18.390625 C 77.105469 17.273438 77.105469 17.273438 77.679688 17.261719 Z M 77.574219 20.726562 C 77.160156 21.316406 77.160156 21.316406 77.03125 22 C 77.449219 22 77.871094 22 78.304688 22 C 78.121094 21.578125 77.941406 21.160156 77.757812 20.726562 C 77.699219 20.726562 77.636719 20.726562 77.574219 20.726562 Z M 77.574219 20.726562 "/>
<path style=" stroke:none;fill-rule:nonzero;fill:rgb(0.392157%,20.784314%,43.137255%);fill-opacity:1;" d="M 96.289062 17.273438 C 96.648438 17.273438 97.007812 17.273438 97.378906 17.273438 C 97.820312 18.214844 98.261719 19.160156 98.699219 20.105469 C 98.847656 20.429688 98.996094 20.75 99.148438 21.070312 C 99.363281 21.53125 99.578125 21.996094 99.792969 22.457031 C 99.859375 22.601562 99.925781 22.746094 99.996094 22.890625 C 100.058594 23.027344 100.121094 23.160156 100.183594 23.300781 C 100.238281 23.417969 100.292969 23.535156 100.351562 23.65625 C 100.46875 24 100.46875 24 100.46875 24.726562 C 99.867188 24.726562 99.269531 24.726562 98.652344 24.726562 C 98.589844 24.550781 98.527344 24.375 98.464844 24.191406 C 98.152344 23.566406 98.152344 23.566406 97.457031 23.488281 C 97.207031 23.480469 96.957031 23.476562 96.707031 23.476562 C 96.582031 23.472656 96.453125 23.46875 96.324219 23.464844 C 96.007812 23.457031 95.695312 23.457031 95.378906 23.453125 C 95.359375 23.597656 95.335938 23.738281 95.3125 23.886719 C 95.199219 24.363281 95.199219 24.363281 94.835938 24.726562 C 94.441406 24.761719 94.441406 24.761719 93.996094 24.75 C 93.847656 24.746094 93.699219 24.742188 93.546875 24.738281 C 93.429688 24.734375 93.316406 24.730469 93.199219 24.726562 C 92.957031 24 93.152344 23.800781 93.484375 23.125 C 93.589844 22.914062 93.691406 22.703125 93.796875 22.488281 C 93.910156 22.265625 94.019531 22.039062 94.132812 21.816406 C 94.34375 21.386719 94.554688 20.953125 94.769531 20.523438 C 94.871094 20.3125 94.976562 20.105469 95.082031 19.890625 C 95.5 19.023438 95.898438 18.152344 96.289062 17.273438 Z M 96.652344 20.726562 C 96.382812 21.355469 96.382812 21.355469 96.105469 22 C 96.527344 22 96.945312 22 97.378906 22 C 97.269531 21.632812 97.148438 21.269531 97.015625 20.910156 C 96.894531 20.847656 96.777344 20.789062 96.652344 20.726562 Z M 96.652344 20.726562 "/>
<path style=" stroke:none;fill-rule:nonzero;fill:rgb(0.392157%,21.176471%,43.529412%);fill-opacity:1;" d="M 46.464844 17.5 C 46.871094 17.816406 46.871094 17.816406 47.078125 18.171875 C 47.054688 18.546875 47.054688 18.546875 46.757812 18.964844 C 46.328125 19.273438 46.328125 19.273438 45.90625 19.238281 C 45.746094 19.191406 45.585938 19.140625 45.417969 19.089844 C 44.996094 19.027344 44.570312 18.96875 44.148438 18.910156 C 44.148438 19.148438 44.148438 19.390625 44.148438 19.636719 C 44.390625 19.757812 44.390625 19.757812 44.636719 19.882812 C 44.957031 20.046875 44.957031 20.046875 45.28125 20.214844 C 45.492188 20.324219 45.703125 20.429688 45.921875 20.542969 C 46.628906 20.984375 47.136719 21.398438 47.332031 22.234375 C 47.324219 22.949219 47.292969 23.359375 46.917969 23.988281 C 45.976562 24.851562 45.105469 24.800781 43.863281 24.789062 C 43.042969 24.707031 42.617188 24.496094 41.96875 24 C 42.078125 23.460938 42.195312 23.203125 42.511719 22.726562 C 43.1875 22.640625 43.382812 22.703125 43.964844 23.089844 C 44.535156 23.121094 44.535156 23.121094 45.054688 23.089844 C 45.039062 22.652344 45.039062 22.652344 44.875 22.183594 C 44.441406 21.859375 44.441406 21.859375 43.910156 21.625 C 43.199219 21.28125 42.652344 20.980469 42.148438 20.363281 C 41.957031 19.816406 41.925781 19.300781 41.96875 18.726562 C 42.847656 16.929688 44.710938 16.914062 46.464844 17.5 Z M 46.464844 17.5 "/>
<path style=" stroke:none;fill-rule:nonzero;fill:rgb(9.019608%,24.705882%,44.313726%);fill-opacity:1;" d="M 12.71875 14.726562 C 12.835938 14.726562 12.957031 14.726562 13.082031 14.726562 C 13.082031 16.320312 12.359375 17.53125 11.640625 18.902344 C 9.804688 22.40625 7.375 27.722656 8.082031 31.78125 C 8.132812 31.90625 8.179688 32.03125 8.230469 32.160156 C 8.304688 32.351562 8.304688 32.351562 8.378906 32.542969 C 8.542969 32.914062 8.71875 33.277344 8.902344 33.636719 C 8.300781 33.683594 8.300781 33.683594 7.628906 33.636719 C 6.984375 33.011719 6.867188 32.304688 6.835938 31.433594 C 6.894531 26.035156 9.167969 18.867188 12.71875 14.726562 Z M 12.71875 14.726562 "/>
<path style=" stroke:none;fill-rule:nonzero;fill:rgb(0.392157%,20.784314%,43.137255%);fill-opacity:1;" d="M 68.453125 17.253906 C 68.671875 17.253906 68.890625 17.253906 69.117188 17.253906 C 69.355469 17.253906 69.589844 17.257812 69.835938 17.257812 C 70.089844 17.257812 70.339844 17.261719 70.59375 17.261719 C 70.847656 17.261719 71.097656 17.261719 71.351562 17.265625 C 71.972656 17.265625 72.59375 17.269531 73.214844 17.273438 C 73.214844 17.753906 73.214844 18.234375 73.214844 18.726562 C 72.675781 18.726562 72.136719 18.726562 71.582031 18.726562 C 71.582031 18.988281 71.582031 18.988281 71.582031 19.257812 C 71.585938 19.90625 71.589844 20.554688 71.589844 21.203125 C 71.589844 21.484375 71.59375 21.765625 71.59375 22.046875 C 71.597656 22.449219 71.597656 22.851562 71.597656 23.253906 C 71.597656 23.382812 71.601562 23.507812 71.601562 23.636719 C 71.601562 23.941406 71.59375 24.242188 71.582031 24.546875 C 71.398438 24.726562 71.398438 24.726562 71.03125 24.75 C 70.882812 24.75 70.734375 24.75 70.582031 24.75 C 70.433594 24.75 70.285156 24.75 70.132812 24.75 C 69.765625 24.726562 69.765625 24.726562 69.582031 24.546875 C 69.566406 24.113281 69.5625 23.6875 69.566406 23.253906 C 69.566406 23.125 69.566406 22.996094 69.566406 22.863281 C 69.566406 22.453125 69.570312 22.039062 69.570312 21.625 C 69.570312 21.34375 69.574219 21.066406 69.574219 20.785156 C 69.574219 20.101562 69.578125 19.414062 69.582031 18.726562 C 68.984375 18.726562 68.382812 18.726562 67.765625 18.726562 C 67.757812 18.304688 67.757812 17.878906 67.765625 17.453125 C 67.945312 17.273438 67.945312 17.273438 68.453125 17.253906 Z M 68.453125 17.253906 "/>
<path style=" stroke:none;fill-rule:nonzero;fill:rgb(0.392157%,21.568628%,43.137255%);fill-opacity:1;" d="M 87.574219 17.25 C 87.722656 17.25 87.871094 17.25 88.023438 17.25 C 88.171875 17.25 88.320312 17.25 88.472656 17.25 C 88.839844 17.273438 88.839844 17.273438 89.023438 17.453125 C 89.039062 17.871094 89.042969 18.289062 89.039062 18.707031 C 89.039062 18.832031 89.039062 18.953125 89.039062 19.082031 C 89.039062 19.484375 89.035156 19.882812 89.03125 20.285156 C 89.03125 20.554688 89.03125 20.824219 89.03125 21.097656 C 89.027344 21.761719 89.023438 22.425781 89.023438 23.089844 C 89.921875 23.152344 90.820312 23.210938 91.746094 23.273438 C 91.746094 23.691406 91.746094 24.113281 91.746094 24.546875 C 91.433594 24.855469 91.023438 24.75 90.601562 24.75 C 90.40625 24.75 90.210938 24.75 90.007812 24.753906 C 89.800781 24.75 89.597656 24.75 89.386719 24.75 C 89.179688 24.75 88.972656 24.75 88.761719 24.753906 C 88.566406 24.75 88.371094 24.75 88.171875 24.75 C 87.988281 24.75 87.808594 24.75 87.621094 24.75 C 87.203125 24.726562 87.203125 24.726562 87.023438 24.546875 C 87.003906 24.023438 86.996094 23.503906 87 22.984375 C 87 22.828125 87 22.667969 87 22.507812 C 87 22.175781 87 21.84375 87 21.511719 C 87 21.003906 87 20.492188 87 19.980469 C 87 19.660156 87 19.339844 87 19.015625 C 87 18.863281 87 18.710938 87 18.550781 C 87.003906 17.285156 87.003906 17.285156 87.574219 17.25 Z M 87.574219 17.25 "/>
<path style=" stroke:none;fill-rule:nonzero;fill:rgb(0.392157%,21.176471%,43.529412%);fill-opacity:1;" d="M 37.789062 17.273438 C 38.328125 17.273438 38.867188 17.273438 39.425781 17.273438 C 39.605469 17.453125 39.605469 17.453125 39.625 18.144531 C 39.625 18.449219 39.625 18.757812 39.625 19.0625 C 39.625 19.222656 39.621094 19.386719 39.621094 19.550781 C 39.621094 20.070312 39.621094 20.585938 39.617188 21.101562 C 39.617188 21.453125 39.613281 21.800781 39.613281 22.152344 C 39.613281 23.007812 39.609375 23.867188 39.605469 24.726562 C 39.007812 24.726562 38.40625 24.726562 37.789062 24.726562 C 37.789062 22.265625 37.789062 19.808594 37.789062 17.273438 Z M 37.789062 17.273438 "/>
<path style=" stroke:none;fill-rule:nonzero;fill:rgb(14.901961%,26.666668%,45.490196%);fill-opacity:1;" d="M 18.347656 8.546875 C 18.46875 8.605469 18.589844 8.664062 18.710938 8.726562 C 17.8125 9.628906 16.914062 10.527344 15.988281 11.453125 C 15.925781 11.273438 15.867188 11.09375 15.804688 10.910156 C 17.515625 9.164062 17.515625 9.164062 18.347656 8.546875 Z M 15.441406 11.453125 C 15.5625 11.515625 15.683594 11.574219 15.804688 11.636719 C 15.445312 11.816406 15.445312 11.816406 15.078125 12 C 15.199219 11.820312 15.320312 11.640625 15.441406 11.453125 Z M 15.441406 11.453125 "/>
<path style=" stroke:none;fill-rule:nonzero;fill:rgb(2.352941%,22.352941%,45.09804%);fill-opacity:1;" d="M 8.175781 25.636719 C 8.355469 25.695312 8.535156 25.757812 8.71875 25.816406 C 8.5625 27.226562 8.5625 27.226562 8.355469 27.636719 C 8.117188 27.578125 7.878906 27.515625 7.628906 27.453125 C 7.652344 27.183594 7.675781 26.917969 7.699219 26.648438 C 7.710938 26.496094 7.722656 26.347656 7.738281 26.195312 C 7.761719 26.070312 7.785156 25.945312 7.8125 25.816406 C 7.933594 25.757812 8.050781 25.699219 8.175781 25.636719 Z M 8.175781 25.636719 "/>
<path style=" stroke:none;fill-rule:nonzero;fill:rgb(19.215687%,29.411766%,49.411765%);fill-opacity:1;" d="M 7.628906 26.183594 C 7.691406 26.183594 7.75 26.183594 7.8125 26.183594 C 7.808594 26.355469 7.804688 26.527344 7.800781 26.703125 C 7.769531 27.253906 7.769531 27.253906 7.992188 27.636719 C 8.113281 27.636719 8.234375 27.636719 8.355469 27.636719 C 8.355469 27.757812 8.355469 27.875 8.355469 28 C 8.117188 28.058594 7.878906 28.121094 7.628906 28.183594 C 7.570312 28.421875 7.511719 28.660156 7.449219 28.910156 C 7.570312 28.910156 7.6875 28.910156 7.8125 28.910156 C 7.617188 29.296875 7.394531 29.519531 7.085938 29.816406 C 7.171875 28.574219 7.332031 27.394531 7.628906 26.183594 Z M 7.628906 26.183594 "/>
<path style=" stroke:none;fill-rule:nonzero;fill:rgb(2.745098%,21.568628%,40.784314%);fill-opacity:1;" d="M 9.628906 22 C 9.75 22 9.867188 22 9.992188 22 C 9.898438 22.503906 9.789062 22.96875 9.628906 23.453125 C 9.390625 23.394531 9.148438 23.335938 8.902344 23.273438 C 8.960938 23.09375 9.023438 22.914062 9.082031 22.726562 C 9.203125 22.726562 9.324219 22.726562 9.445312 22.726562 C 9.507812 22.488281 9.566406 22.246094 9.628906 22 Z M 9.628906 22 "/>
<path style=" stroke:none;fill-rule:nonzero;fill:rgb(1.176471%,19.607843%,38.431373%);fill-opacity:1;" d="M 7.265625 30.363281 C 7.328125 30.363281 7.386719 30.363281 7.449219 30.363281 C 7.449219 30.722656 7.449219 31.082031 7.449219 31.453125 C 7.628906 31.394531 7.808594 31.335938 7.992188 31.273438 C 7.933594 31.453125 7.875 31.632812 7.8125 31.816406 C 7.511719 31.757812 7.210938 31.699219 6.902344 31.636719 C 7.0625 30.566406 7.0625 30.566406 7.265625 30.363281 Z M 7.265625 30.363281 "/>
</g>
</svg>
