 <svg  version="1.0" xmlns="http://www.w3.org/2000/svg"  width="900.000000pt" height="267.000000pt" viewBox="0 0 900.000000 267.000000"  preserveAspectRatio="xMidYMid meet">  <g transform="translate(0.000000,267.000000) scale(0.100000,-0.100000)" fill="#10a2e0" stroke="none"> <path d="M1050 2525 l0 -35 88 0 c56 -1 96 -6 112 -15 14 -8 37 -14 52 -15 14 0 39 -6 55 -14 15 -8 50 -25 76 -38 52 -25 61 -30 122 -69 48 -32 154 -142 192 -201 15 -24 30 -45 34 -48 5 -5 29 -55 63 -133 9 -21 16 -48 16 -60 1 -12 7 -33 15 -47 21 -36 22 -994 1 -1037 -7 -15 -22 -46 -32 -68 -34 -74 -120 -174 -169 -196 -11 -5 -36 -19 -55 -30 -39 -24 -160 -58 -203 -59 -32 0 -154 28 -177 41 -8 4 -33 17 -55 28 -63 32 -185 157 -185 189 0 5 -7 15 -15 22 -8 7 -15 21 -15 32 0 10 -7 30 -16 43 -14 22 -17 75 -19 413 -1 213 0 404 3 424 3 27 16 49 44 78 35 35 46 40 85 40 50 0 88 -19 118 -58 19 -26 20 -48 26 -407 4 -209 10 -398 14 -419 15 -79 95 -136 191 -136 63 0 103 18 149 68 52 55 57 103 51 497 -5 390 -11 490 -32 519 -8 11 -14 28 -14 37 0 9 -7 22 -15 29 -8 7 -15 19 -15 27 0 18 -76 118 -116 153 -36 32 -131 90 -146 90 -6 0 -19 6 -27 14 -18 15 -127 38 -181 38 -68 0 -158 -25 -245 -70 -37 -18 -135 -92 -135 -101 0 -4 -12 -20 -27 -37 -34 -38 -47 -58 -71 -109 -56 -121 -61 -164 -60 -615 0 -449 10 -566 54 -652 8 -14 14 -35 14 -46 0 -11 7 -25 15 -32 8 -7 15 -19 15 -27 0 -8 14 -32 30 -53 17 -21 30 -40 30 -43 0 -25 180 -199 241 -232 118 -64 215 -104 279 -115 25 -4 59 -13 76 -19 45 -17 144 -10 157 11 20 32 -8 48 -85 48 -38 0 -79 5 -91 12 -12 6 -40 15 -62 19 -22 4 -56 13 -75 19 -19 7 -39 15 -45 16 -5 2 -17 8 -25 13 -8 5 -22 12 -30 15 -19 7 -44 23 -95 60 -43 31 -205 196 -205 209 0 4 -13 26 -30 49 -16 22 -30 47 -30 53 0 7 -7 18 -15 25 -8 7 -15 27 -15 44 -1 17 -7 42 -15 56 -8 14 -14 44 -15 67 0 23 -7 68 -15 100 -22 83 -22 723 0 806 8 32 15 69 15 83 0 23 12 52 41 104 5 8 13 24 18 35 21 48 154 167 221 197 102 46 171 55 267 32 97 -22 170 -65 247 -144 74 -76 113 -150 137 -264 17 -78 19 -133 19 -448 0 -331 -1 -361 -19 -393 -30 -57 -61 -75 -128 -75 -64 1 -93 19 -125 79 -16 29 -18 70 -18 419 l-1 387 -27 39 c-62 90 -181 123 -260 72 -46 -29 -67 -53 -92 -102 -19 -36 -20 -61 -20 -444 0 -349 2 -412 16 -455 18 -54 41 -111 56 -135 5 -8 11 -22 14 -31 11 -31 150 -155 199 -178 28 -12 65 -30 84 -39 50 -25 316 -24 351 1 14 9 32 17 41 17 9 0 22 7 29 15 7 8 21 15 31 15 10 0 54 35 97 77 81 80 120 144 156 258 23 73 24 956 1 1012 -8 19 -15 47 -15 62 0 14 -7 35 -15 45 -8 11 -15 30 -15 42 0 12 -7 35 -14 51 -8 15 -18 35 -21 43 -3 8 -14 29 -25 45 -11 17 -23 37 -27 45 -28 63 -200 233 -255 253 -10 4 -18 11 -18 17 0 5 -8 10 -19 10 -10 0 -24 7 -31 15 -7 8 -20 15 -29 15 -9 0 -25 7 -35 15 -11 8 -29 15 -41 15 -12 0 -30 7 -41 15 -10 8 -31 15 -46 15 -15 0 -53 7 -85 15 -31 8 -81 15 -110 15 l-53 0 0 -35z"/> <path d="M870 2363 c-25 -8 -58 -21 -75 -28 -16 -7 -37 -16 -45 -19 -8 -3 -28 -15 -45 -26 -16 -11 -39 -24 -50 -29 -48 -22 -205 -201 -205 -234 0 -8 -7 -20 -15 -27 -8 -7 -15 -19 -15 -27 0 -8 -6 -27 -14 -41 -24 -47 -39 -115 -43 -200 -4 -70 -2 -83 12 -88 31 -12 48 21 55 108 4 46 13 99 20 118 29 78 80 170 93 170 4 0 7 4 7 10 0 31 196 200 231 200 6 0 17 7 25 15 9 8 27 15 40 15 14 0 37 8 51 18 39 24 309 24 347 -1 14 -10 36 -17 48 -17 13 -1 41 -12 63 -25 22 -14 47 -28 55 -31 16 -8 95 -69 120 -94 32 -33 90 -108 90 -117 0 -6 7 -13 15 -17 8 -3 15 -14 15 -24 0 -11 7 -25 15 -32 8 -7 15 -24 15 -39 0 -14 7 -34 14 -44 21 -27 27 -142 30 -537 3 -353 -4 -470 -31 -501 -7 -8 -13 -20 -13 -26 0 -19 -101 -113 -128 -120 -15 -3 -36 -12 -47 -19 -26 -18 -154 -18 -180 0 -11 7 -33 16 -48 20 -30 7 -127 100 -127 121 0 7 -6 18 -14 24 -26 22 -37 154 -39 496 l-2 340 -25 0 -25 0 0 -411 c0 -346 2 -414 15 -429 16 -19 34 -49 48 -80 13 -28 92 -97 133 -116 54 -26 120 -42 174 -43 55 0 141 21 166 41 8 7 21 13 28 13 22 0 117 104 147 161 l28 54 1 490 c0 451 -1 492 -17 515 -10 13 -18 33 -18 45 0 26 -56 140 -92 186 -15 20 -28 40 -28 44 0 10 -123 126 -145 136 -11 5 -33 18 -50 29 -40 25 -114 60 -130 60 -7 0 -29 7 -48 15 -51 21 -324 20 -387 -2z"/> <path d="M980 2035 c-14 -8 -33 -14 -43 -15 -25 0 -95 -47 -139 -92 -39 -40 -67 -94 -89 -167 -17 -58 -18 -886 0 -918 6 -12 11 -37 11 -56 0 -19 7 -48 15 -63 8 -16 15 -36 15 -45 0 -9 7 -22 15 -29 8 -7 15 -20 15 -30 0 -10 7 -23 15 -30 8 -7 15 -18 15 -26 0 -23 152 -181 202 -210 60 -34 170 -84 186 -84 9 -1 28 -7 42 -15 19 -11 63 -14 175 -14 112 0 156 3 175 14 14 8 33 14 42 15 16 0 135 54 183 83 34 20 205 196 205 211 0 7 7 19 15 26 8 7 15 20 15 30 0 10 7 23 15 30 8 7 15 25 15 40 0 15 6 33 14 39 13 11 17 34 32 177 6 57 4 62 -15 69 -32 10 -41 -2 -41 -58 0 -29 -7 -65 -15 -81 -8 -15 -15 -42 -15 -58 0 -16 -6 -42 -13 -56 -8 -15 -22 -45 -33 -67 -32 -70 -88 -137 -181 -215 -44 -38 -91 -70 -102 -70 -5 0 -22 -6 -38 -14 -92 -46 -113 -51 -262 -50 -118 0 -152 3 -178 17 -18 9 -41 17 -51 17 -11 0 -25 7 -32 15 -7 8 -19 15 -27 15 -21 0 -95 55 -168 125 -66 64 -135 165 -135 198 0 8 -7 20 -15 27 -9 7 -15 30 -15 54 0 22 -7 50 -15 60 -22 29 -22 891 0 920 8 11 15 26 15 34 0 34 120 161 153 162 10 0 32 7 49 16 35 18 129 15 192 -7 53 -19 148 -112 174 -173 21 -47 22 -61 22 -438 l0 -389 33 3 32 3 3 383 c2 325 0 387 -13 412 -8 16 -15 40 -15 54 0 13 -3 26 -7 28 -5 2 -21 23 -38 46 -33 50 -134 132 -162 132 -10 1 -29 7 -43 15 -15 9 -53 14 -95 14 -42 0 -80 -5 -95 -14z"/> <path d="M6380 1430 l0 -450 45 0 45 0 1 158 c1 194 19 257 89 305 33 23 128 23 155 -1 49 -42 50 -45 55 -256 l5 -201 50 0 50 0 0 205 c0 195 -1 207 -24 253 -12 26 -39 60 -59 75 -32 25 -43 27 -121 27 -84 0 -88 -1 -137 -37 -28 -21 -54 -35 -58 -31 -3 3 -6 96 -6 205 l0 198 -45 0 -45 0 0 -450z"/> <path d="M7730 1430 l0 -450 45 0 c40 0 45 2 45 23 0 36 9 38 52 11 88 -56 159 -66 256 -38 78 23 153 98 176 176 62 213 -61 398 -264 398 -67 0 -143 -24 -160 -51 -3 -5 -17 -10 -30 -11 l-25 -3 -3 198 -2 197 -45 0 -45 0 0 -450z m378 11 c71 -36 102 -92 102 -185 0 -56 -5 -73 -30 -115 -87 -141 -297 -109 -345 53 -19 62 -19 71 1 132 19 56 35 77 84 110 46 30 134 32 188 5z"/> <path d="M5809 1832 c-84 -24 -167 -79 -217 -145 -53 -70 -70 -108 -89 -197 -13 -64 -13 -87 -3 -155 7 -44 19 -90 26 -102 8 -12 14 -27 14 -33 0 -15 37 -67 85 -119 76 -82 154 -118 276 -128 110 -8 221 28 303 100 44 37 42 56 -10 88 l-34 21 -32 -31 c-54 -53 -114 -76 -193 -75 -92 0 -140 15 -196 61 -61 49 -104 115 -118 181 -36 172 22 321 161 409 32 19 59 26 117 30 92 6 150 -8 195 -47 18 -17 42 -30 52 -30 20 1 74 43 74 58 0 27 -67 73 -164 111 -53 22 -175 23 -247 3z"/> <path d="M2577 1813 c-4 -3 -7 -193 -7 -420 l0 -414 53 3 52 3 3 323 c2 279 4 322 17 322 9 0 20 -12 25 -27 6 -16 14 -37 19 -48 5 -11 25 -60 46 -110 20 -49 40 -99 45 -110 4 -11 24 -60 45 -110 20 -49 40 -99 44 -110 5 -11 17 -40 27 -65 25 -63 32 -70 70 -70 39 0 32 -13 139 250 26 63 51 124 56 135 4 11 18 45 29 75 59 150 91 213 101 203 5 -5 10 -155 11 -333 l3 -325 50 0 50 0 0 415 0 415 -81 3 -80 3 -16 -33 c-9 -18 -44 -100 -78 -183 -34 -82 -69 -166 -78 -185 -15 -33 -20 -46 -55 -130 -8 -19 -18 -45 -22 -58 -3 -12 -15 -27 -26 -32 -16 -9 -21 -7 -29 17 -6 15 -15 39 -21 53 -27 62 -40 93 -89 210 -28 69 -61 145 -72 170 -11 24 -24 56 -30 70 -5 14 -16 42 -25 63 l-17 37 -76 0 c-42 0 -80 -3 -83 -7z"/> <path d="M4285 1807 c-3 -6 -4 -194 -3 -417 l3 -405 250 0 250 0 0 40 0 40 -188 3 -188 2 -10 27 c-6 16 -9 160 -9 362 0 185 1 342 0 349 0 17 -99 17 -105 -1z"/> <path d="M4915 1807 c-3 -6 -4 -194 -3 -417 l3 -405 250 0 250 0 0 40 0 40 -190 5 -190 5 -5 370 c-3 204 -7 371 -8 373 -8 9 -103 0 -107 -11z"/> <path d="M3595 1531 c-3 -5 2 -27 11 -48 9 -21 22 -51 29 -68 7 -16 29 -70 50 -120 20 -49 43 -106 51 -125 9 -19 19 -44 24 -55 4 -11 20 -49 34 -83 25 -62 26 -65 10 -110 -37 -111 -90 -163 -150 -148 -35 9 -54 -9 -54 -50 0 -30 3 -34 36 -40 57 -11 121 1 157 29 32 24 75 99 110 192 43 111 110 282 117 300 9 20 37 92 67 170 9 22 22 54 29 72 8 17 17 45 20 62 l7 31 -46 0 c-53 0 -56 -4 -97 -120 -12 -36 -29 -79 -36 -97 -8 -17 -14 -36 -14 -42 0 -6 -6 -25 -14 -43 -8 -18 -23 -54 -33 -80 -19 -49 -37 -61 -46 -30 -3 9 -14 40 -25 67 -11 28 -38 100 -61 160 -74 194 -68 185 -122 185 -26 0 -50 -4 -54 -9z"/> <path d="M7057 1533 c-13 -13 -7 -406 6 -446 29 -83 114 -133 209 -125 59 6 87 17 138 54 l35 25 5 -28 c5 -26 9 -28 53 -31 l47 -3 -2 278 -3 278 -42 3 c-53 4 -52 8 -55 -203 -3 -180 -14 -219 -73 -255 -49 -30 -89 -35 -138 -16 -78 30 -82 43 -85 274 l-4 202 -42 0 c-24 0 -46 -3 -49 -7z"/> </g> </svg> 